<svg xmlns="http://www.w3.org/2000/svg" xmlns:xlink="http://www.w3.org/1999/xlink" version="1.1" id="Capa_1" x="0px" y="0px" viewBox="0 0 512.011 512.011" style="enable-background:new 0 0 512.011 512.011;" xml:space="preserve">
<g>
	<path style="fill:#ff4e13;" d="M490.672,512.008c-5.461,0-10.923-2.091-15.083-6.251L6.256,36.424   c-8.341-8.341-8.341-21.824,0-30.165s21.824-8.341,30.165,0l469.333,469.333c8.341,8.341,8.341,21.824,0,30.165   C501.595,509.917,496.133,512.008,490.672,512.008z"/>
	<path style="fill:#ff4e13;" d="M21.339,512.008c-5.461,0-10.923-2.091-15.083-6.251c-8.341-8.341-8.341-21.824,0-30.165   L475.589,6.259c8.341-8.341,21.824-8.341,30.165,0c8.341,8.341,8.341,21.824,0,30.165L36.421,505.757   C32.261,509.917,26.8,512.008,21.339,512.008z"/>
</g>
</svg>